<?xml version="1.0" encoding="iso-8859-1"?>
<!-- Generator: Adobe Illustrator 21.0.0, SVG Export Plug-In . SVG Version: 6.00 Build 0)  -->
<svg version="1.1" id="Layer_1" xmlns="http://www.w3.org/2000/svg" xmlns:xlink="http://www.w3.org/1999/xlink" x="0px" y="0px"
	 viewBox="0 0 1500 1500" style="enable-background:new 0 0 1500 1500;" xml:space="preserve">
<g>
	<path style="fill:#EE1C4E;" d="M842.621,788.59c-2.395,9.69-5.911,19.073-8.179,28.789c-2.144,9.186-2.851,18.753,0.606,27.716
		c3.199,8.295,8.721,15.39,11.732,23.791c5.541,15.463,9.411,31.115,26.278,37.685c8.896,3.465,19.015,4.133,28.478,4.102
		c9.546-0.03,19.364-1.728,26.997-7.838c0.509-0.406,0.991-0.821,1.45-1.243l0.046,0.038c7.86,5.108,17.572-2.42,22.681-8.521
		c6.263-7.478,9.73-16.866,10.902-26.471c1.7-13.929-0.529-28.274,2.673-42.028c2.907-12.487,11.042-22.96,19.308-32.447
		c18.366-21.082,37.185-41.698,54.637-63.583c8.596-10.779,17.036-21.688,25.153-32.833c5.011-6.878,9.91-13.97,13.676-21.613
		c0.136,0.236,0.27,0.47,0.396,0.699c2.317,4.182,4.46,8.452,6.315,12.86c3.562,8.461,6.441,17.174,8.344,26.162
		c3.778,17.846,4.215,36.441,2.576,54.561c-0.114,1.271,1.744,1.375,2.118,0.287c6.323-18.412,6.814-37.873,2.835-56.924
		c-1.918-9.187-4.749-18.239-8.64-26.786c-2.045-4.494-4.342-8.87-6.885-13.102c-1.062-1.767-2.238-3.874-3.802-5.373
		c0.371-1.022,0.728-2.051,1.05-3.095c4.465-14.473,2.195-29.826-0.972-44.324c-1.631-7.464-3.581-14.848-5.854-22.142
		c-2.328-7.475-4.538-15.084-8.937-21.624c-0.931-1.383-2.801-0.469-2.57,1.083c0.944,6.362,3.188,12.227,5.051,18.361
		c2.033,6.698,3.807,13.477,5.375,20.299c3.048,13.259,5.895,27.209,2.546,40.692c-2.909,11.711-10.023,21.665-17.153,31.174
		c-8.091,10.791-16.628,21.256-25.275,31.603c-16.75,20.042-34.27,39.563-50.263,60.222c-7.136,9.219-15.039,18.407-20.498,28.765
		c-5.355,10.164-7.381,20.987-7.769,32.39c-0.44,12.944,0.968,26.596-4.313,38.79c-2.146,4.958-5.259,9.769-9.484,13.203
		c-2.767,2.247-5.996,3.313-9.108,4.684c3.358-5.394,4.129-11.684,3.831-18.76c-0.489-11.6,2.926-21.415,9.204-31.077
		c1.902-2.929-2.294-5.921-4.712-3.636c-5.938,5.611-9.842,13.046-11.614,21.022c-0.87,3.913-1.178,7.929-1.098,11.93
		c0.096,4.771,0.814,9.68-1.259,14.167c-7.42,16.052-33.41,14.383-47.653,11.118c-8.515-1.951-15.426-6.258-19.622-14.066
		c-3.789-7.053-5.354-15.048-8.156-22.497c-2.863-7.611-7.792-14.176-10.728-21.716c-3.689-9.474-1.677-19.407,1.098-28.832
		c5.2-17.67,9.921-35.017,12.244-53.347c2.383-18.795,2.394-37.799,1.099-56.684c-1.287-18.779-4.625-37.024-8.557-55.404
		c-1.991-9.309-4.305-18.547-6.896-27.707c-2.641-9.332-5.991-19.005-5.153-28.845c0.871-10.238,7.723-18.784,11.423-28.117
		c3.272-8.257,5.605-16.856,7.95-25.412c2.384-8.698,4.577-17.549,8.199-25.833c3.755-8.589,9.433-15.778,15.602-22.765
		c0.455,7.041,3.208,13.876,7.679,19.33c13.694,16.706,37.128,18.924,57.193,18.7c11.576-0.129,23.326-0.729,34.73,1.691
		c11.22,2.381,19.842,7.652,27.824,15.775c6.717,6.835,13.366,12.806,22.239,16.666c7.633,3.32,15.88,5.02,24.205,5.088
		c18.028,0.147,36.896-8.444,46.029-24.41c0.161-0.282-0.208-0.555-0.442-0.341c-5.502,5.042-12.562,10.475-19.783,12.441
		c-7.399,2.015-14.123,4.085-21.889,4.308c-16.724,0.479-29.977-6.011-41.365-17.919c-6.492-6.788-12.904-13.091-21.686-16.803
		c-8.203-3.468-17.063-4.91-25.917-5.397c-19.859-1.092-40.6,3.448-59.876-3.048c-9.627-3.244-18.847-9.671-22.401-19.548
		c-3.561-9.894-0.333-17.593,3.505-26.626c0.139-0.327-0.1-0.852-0.529-0.688c-7.063,2.693-9.441,11.1-9.582,18.083
		c-0.006,0.269,0.001,0.537,0.002,0.805c-0.451-0.429-1.171-0.56-1.772,0.015c-11.129,10.636-16.295,27.745-21.235,41.962
		c-2.765,7.957-5.28,16.009-8.419,23.83c-0.654,1.631-1.372,3.224-2.113,4.803c-0.3-1.567-0.688-3.112-1.062-4.593
		c-1.564-6.206-3.119-12.225-4.033-18.572c-0.068-0.475-0.795-0.418-0.903,0c-1.277,4.906-0.159,9.57,0.932,14.449
		c0.651,2.917,1.383,5.818,1.694,8.796c0.251,2.398-0.015,4.667-0.178,6.986c-2.338,4.419-4.77,8.787-6.93,13.336
		c-8.667,18.247,0.16,37.436,4.686,55.596c5.079,20.39,8.082,41.081,9.676,62.028c1.556,20.453,0.994,40.939-1.437,61.307
		C846.965,768.421,845.093,778.585,842.621,788.59z"/>
	<path style="fill:#EE1C4E;" d="M884.921,873.756c-0.414,1.96,0.857,3.611,2.847,3.738c6.282,0.401,10.31-8.537,11.515-13.616
		c1.413-5.956,1.05-12.994-2.953-17.884c-3.782-4.622-9.649-8.44-15.498-9.685c-3.64-0.774-11.89-1.565-13.614,2.795
		c-0.055,0.138,0.033,0.362,0.172,0.423c3.23,1.426,7.545-0.596,11.186,0.06c5.524,0.994,10.593,4.028,12.396,9.527
		c1.445,4.407,2.067,8.838,0.699,13.343C890.338,866.838,885.817,869.505,884.921,873.756z"/>
	<path style="fill:#EE1C4E;" d="M1148.896,513.915c-3.254,2.985-6.831,4.976-10.906,6.625c-3.554,1.438-7.761,3.539-11.482,4.08
		c-0.466,0.067-0.361,0.877,0.111,0.829c3.004-0.312,5.988,0.091,8.968-0.535c2.711-0.569,5.306-1.611,7.826-2.744
		c5.727-2.573,11.317-5.65,16.229-9.579c4.987-3.989,9.696-9.372,15.869-11.497c6.717-2.312,11.183-0.589,17.423,1.798
		c1.932,0.739,3.954-1.898,2.753-3.581c-6.86-9.604-22.559-4.357-30.645,0.677C1158.952,503.779,1154.137,509.106,1148.896,513.915z
		"/>
	<path style="fill:#EE1C4E;" d="M894.899,473.606c-1.128,11.37,4.55,21.085,13.445,27.963c10.506,8.124,23.966,10.256,36.914,10.607
		c15.466,0.42,31.269-1.636,46.53,1.716c15.184,3.335,24.921,13.68,36.63,22.974c10.091,8.01,25.35,15.237,37.792,8.152
		c1.717-0.977,0.563-3.674-1.336-3.17c-17.896,4.748-31.177-7.952-43.969-18.418c-12.327-10.085-25.465-15.328-41.472-15.863
		c-17.541-0.586-35.355,3.252-52.726-0.556c-15.737-3.45-31.754-15.787-31.247-33.405
		C895.473,473.238,894.935,473.253,894.899,473.606z"/>
	<path style="fill:#EE1C4E;" d="M1063.273,533.439c-5.531-1.248-9.944-4.317-14.152-7.971c-5.66-4.914-10.599-9.642-18.461-9.821
		c-0.739-0.017-0.703,1.048,0,1.125c9.705,1.066,15.653,11.176,23.345,16.116c6.974,4.479,17.682,6.778,25.155,2.332
		c0.837-0.498,0.534-1.994-0.521-1.921C1073.401,533.658,1068.512,534.621,1063.273,533.439z"/>
	<path style="fill:#EE1C4E;" d="M920.52,488.352c8.364,6.125,21.477,9.467,31.543,6.38c1.327-0.407,1.346-2.312,0-2.712
		c-10.633-3.163-21.412,0.023-30.918-7.327c-4.195-3.244-7.802-7.321-11.359-11.237c-3.451-3.799-6.07-8.297-9.528-12.034
		c-0.405-0.437-1.048,0.029-0.94,0.547c1.017,4.889,4.796,9.114,7.953,12.844C911.29,479.565,915.473,484.656,920.52,488.352z"/>
	<path style="fill:#EE1C4E;" d="M980.035,503.746c-0.345,0.213-0.219,0.798,0.213,0.786c6.144-0.172,11.959-2.157,18.075-2.994
		c6.549-0.896,12.905-1.898,19.545-1.716c12.871,0.354,23.311,5.524,33.493,13.011c8.799,6.468,17.084,13.675,27.283,17.902
		c7.869,3.261,20.868,6.67,27.719-0.477c0.457-0.477,0.121-1.26-0.53-1.28c-5.569-0.177-10.907,1.103-16.511,0.049
		c-6.043-1.136-11.727-3.745-16.943-6.938c-9.543-5.841-17.62-13.769-27.2-19.563c-9.335-5.646-19.969-8.537-30.9-7.956
		c-5.916,0.315-12.061,1.159-17.721,2.914C990.858,499.25,985.099,500.602,980.035,503.746z"/>
	<path style="fill:#EE1C4E;" d="M1165.636,490.681c-8.866-1.638-16.558,7.19-21.875,12.998c-7.527,8.22-16.492,15.041-27.679,17.151
		c-0.565,0.106-0.443,1.059,0.138,1.013c8.899-0.708,17.96-2.924,25.134-8.59c4.028-3.181,7.465-7.006,11.136-10.574
		c4.16-4.042,8.656-5.994,13.562-8.828C1167.262,493.15,1167.146,490.959,1165.636,490.681z"/>
	<path style="fill:#EE1C4E;" d="M1138.707,494.132c-4.123,4.74-8.279,9.077-13.998,11.919c-5.582,2.774-11.839,4.303-18.018,4.96
		c-6.356,0.675-13.163,0.762-19.249-1.436c-7.672-2.77-10.207-8.807-13.21-15.824c-10.064-23.511-42.539-26.579-62.787-15.428
		c-0.908,0.5-0.109,1.817,0.804,1.376c14.304-6.905,31.912-7.406,45.82,0.82c7.188,4.251,10.583,9.938,13.389,17.577
		c2.05,5.584,4.724,10.374,9.873,13.626c9.755,6.16,23.019,5.325,33.771,2.729c10.087-2.436,22.737-8.175,25.251-19.362
		C1140.553,494.196,1139.393,493.344,1138.707,494.132z"/>
	<path style="fill:#EE1C4E;" d="M884.163,466.04c2.449-0.381,1.465-4.418-1.046-3.797c-10.552,2.611-19.051,13.772-23.118,23.288
		c-5.291,12.374-4.798,25.025-2.013,37.918c0.065,0.304,0.595,0.243,0.553-0.075c-1.508-11.307-1.21-23.938,2.784-34.762
		C865.077,478.441,872.797,467.809,884.163,466.04z"/>
	<path style="fill:#EE1C4E;" d="M876.475,388.468c-0.548-0.59-1.329,0.261-0.861,0.862c6.217,7.981,12.099,16.322,17.395,24.945
		c2.441,3.976,4.721,8.05,6.803,12.226c2.184,4.379,3.76,9.24,6.567,13.261c0.467,0.668,1.878,0.543,1.747-0.473
		c-1.206-9.309-7.634-18.732-12.555-26.512C890.019,404.001,883.539,396.067,876.475,388.468z"/>
	<path style="fill:#EE1C4E;" d="M810.951,439.621c6.07,13.218,16.45,26.798,30.958,31.054c2.155,0.632,3.619-2.632,1.554-3.684
		c-13.313-6.78-22.634-16.964-28.753-30.584c-3.3-7.346-5.563-15.122-7.593-22.899c-1.563-5.983-3.355-12.099-4.467-18.266
		c8.212,12.674,17.818,23.99,30.525,32.807c7.55,5.238,15.581,8.846,24.456,11.161c5.597,1.46,11.617,2.856,17.559,2.974
		c-3.974,2.606-7.719,5.74-10.941,8.727c-6.147,5.7-11.308,12.788-15.321,20.122c-8.142,14.876-11.414,31.018-9.478,47.827
		c0.021,0.175,0.285,0.186,0.281,0c-0.296-15.62,4.319-31.779,12.365-45.129c3.931-6.523,8.703-12.422,14.185-17.699
		c2.989-2.878,6.032-5.756,9.413-8.177c2.819-2.02,5.94-3.523,8.855-5.362c6.9,6.044,15.417,10.082,24.97,11.667
		c0.012,0.145,0.041,0.293,0.109,0.448c10.073,22.619,37.29,32.79,60.625,29.269c13.9-2.097,25.02-8.428,36.413-16.259
		c5.87-4.034,12.287-7.884,19.671-7.546c7.822,0.358,15.486,3.651,22.849,6.065c14.307,4.691,33.675,9.472,47.033-0.159
		c1.545-1.113,1.067-3.604-0.993-3.668c-8.952-0.282-17.274,4.189-26.419,3.5c-9.224-0.695-18.13-4.367-26.897-7.056
		c-7.611-2.335-15.476-4.554-23.388-2.357c-7.222,2.005-13.247,6.772-19.247,11.041c-14.49,10.31-31.573,16.072-49.447,12.75
		c-15.833-2.942-28.482-12.554-37.395-25.624c0.438,0.049,0.875,0.098,1.316,0.137c2.608,0.229,2.936-3.698,0.598-4.419
		c-8.676-2.677-17.587-6.445-24.506-12.458c-7.91-6.874-12.064-16.054-15.129-25.878c-4.838-15.506-8.505-31.533-14.317-46.721
		c14.788,12.811,30.418,24.383,41.644,40.969c6.624,9.787,11.825,20.404,15.556,31.614c3.147,9.459,5.719,21.733,14.305,27.83
		c2.313,1.643,4.82-1.476,3.656-3.656c-2.88-5.391-6.098-10.23-8.206-16.037c-1.837-5.061-3.316-10.243-5.232-15.277
		c-2.974-7.816-6.656-15.345-11.016-22.47c4.02,3.416,8.214,6.617,12.367,9.695c6.218,4.607,12.618,8.975,18.794,13.636
		c6.204,4.684,10.066,9.985,13.771,16.725c0.664,1.208,2.813,1.043,3.084-0.403c2.637-14.031-16.972-22.85-26.517-28.951
		c-9.71-6.206-18.726-12.886-27.107-20.438c-4.672-14.892,3.152-32.87,11.631-44.863c9.301-13.157,22.309-23.084,36.594-30.313
		c14.266-7.217,29.897-9.997,44.515-16.18c10.464-4.426,25.427-13.897,25.256-26.833c-0.021-1.549-2.078-2.085-2.883-0.781
		c-4.396,7.136-7.706,13.463-14.823,18.377c-6.757,4.665-14.588,7.37-22.346,9.854c-15.765,5.048-31.062,10.585-44.633,20.33
		c-12.121,8.704-22.246,19.877-28.997,33.233c-5.338,10.559-9.358,23.667-6.248,35.405c-0.478-0.442-0.955-0.884-1.428-1.333
		c-5.824-7.367-12.374-14.085-19.607-20.124c-9.644-8.05-20.402-15.129-28.78-24.575c-2.548-2.872-6.207,0.788-4.904,3.784
		c9.579,22.036,12.914,46.249,21.921,68.446c2.164,5.332,5.052,10.108,8.54,14.249c-7.208-0.145-14.234-0.116-21.306-2.438
		c-8.012-2.632-15.938-6.854-22.82-11.691c-13.566-9.537-24.908-23.274-33.798-37.158c-1.02-1.593-3.561-0.981-3.588,0.972
		c-0.134,9.545,2.405,18.771,4.776,27.942C804.757,423.242,807.29,431.646,810.951,439.621z"/>
	<path style="fill:#EE1C4E;" d="M848.77,452.276c-6.148-5.051-13.068-8.861-18.956-14.315c-5.771-5.347-11.085-11.589-15.892-17.717
		c-0.481-0.613-1.351,0.167-1.031,0.795c3.862,7.605,8.893,13.917,15.259,19.713c5.737,5.224,12.296,10.659,19.799,12.935
		C848.718,453.92,849.435,452.823,848.77,452.276z"/>
	<path style="fill:#EE1C4E;" d="M1005.182,333.662c0.253-0.109,0.066-0.485-0.181-0.429c-17.916,4.098-38.06,11.812-48.951,27.465
		c-5.521,7.936-7.394,16.543-7.634,26.077c-0.142,5.611,0,11.213-1.555,16.661c-1.265,4.436-4.425,7.981-5.629,12.329
		c-0.371,1.342,0.907,2.621,2.249,2.249c7.187-1.991,8.79-11.976,9.41-18.267c1.062-10.78-0.938-22.445,3.855-32.543
		C966.006,347.698,986.96,341.552,1005.182,333.662z"/>
	<path style="fill:#EE1C4E;" d="M996.525,349.963c-7.414,2.57-13.596,7.429-19.308,12.689c-5.368,4.943-10.354,10.721-11.578,18.151
		c-0.521,3.161-0.362,6.321-0.403,9.508c-0.054,4.116-1.716,7.122-2.424,10.981c-0.242,1.318,0.815,2.666,2.249,2.249
		c5.677-1.652,5.794-9.09,5.797-13.965c0.002-3.974-0.394-8.013,0.901-11.849c1.418-4.199,4.387-7.682,7.41-10.824
		c6.165-6.408,12.743-11.686,21.468-13.99c7.717-2.039,15.748-2.176,23.659-2.799c15.131-1.192,27.401-5.497,39.199-15.196
		c13.513-11.109,25.829-25.477,44.199-27.692c1.675-0.202,1.386-2.55-0.312-2.302c-16.023,2.338-28.903,13.411-41.054,23.276
		c-7.017,5.697-14.785,11.41-23.31,14.619c-7.828,2.947-16.211,3.31-24.473,3.804C1011.159,347.065,1003.576,347.52,996.525,349.963
		z"/>
	<path style="fill:#EE1C4E;" d="M1115.607,705.299c0.063,0.897,1.44,1.208,1.657,0.225c1.774-8.028,1.402-16.882,1.105-25.06
		c-0.293-8.088-1.046-16.154-2.218-24.161c-2.454-16.774-6.704-32.917-14.275-48.084c-0.211-0.421-0.945-0.124-0.771,0.325
		c5.733,14.847,9.61,30.902,12.05,46.617c1.301,8.376,2.099,16.833,2.402,25.304
		C1115.854,688.712,1115.027,697.091,1115.607,705.299z"/>
	<path style="fill:#EE1C4E;" d="M1058.23,360.94c-4.533,0.28-9.138,1.095-13.565,2.075c-8.832,1.956-17.511,5.474-25.252,10.144
		c-9.701,5.853-16.546,15.249-24.392,23.224c-3.863,3.927-8.083,7.79-12.753,10.736c-4.861,3.066-10.313,4.726-15.354,7.388
		c-1.371,0.724-1.567,3.224,0,3.886c0.797,0.336,1.602,0.585,2.41,0.793c-0.628,0.136-1.256,0.273-1.882,0.423
		c-0.721,0.174-0.798,1.421,0,1.537c11.325,1.641,22.723,1.15,34.146,1.158c11.952,0.009,23.914,0.272,35.854,0.812
		c24.106,1.088,48.301,3.361,71.938,8.33c21.394,4.497,43.186,10.193,63.246,19.016c17.788,7.823,35.039,18.854,45.846,35.407
		c12.428,19.037,16.316,43.299,18.65,65.512c2.421,23.044,2.146,46.416-4.743,68.72c-12.998,42.085-44.715,74.415-77.244,102.507
		c-9.734,8.406-19.671,16.573-29.539,24.821c-9.531,7.965-19.396,15.79-27.924,24.853c-16.731,17.781-23.245,40.698-28.501,63.949
		c-0.431,1.907,2.224,2.589,2.893,0.797c7.815-20.912,15.586-42.619,31.227-59.128c16.279-17.185,36.147-31.218,54.18-46.483
		c1.521-1.288,3.039-2.586,4.554-3.89c4.979-2.693,9.599-6.274,14.514-8.983c6.917-3.812,14.064-7.103,21.155-10.564
		c13.934-6.804,27.342-14.169,39.975-23.193c12.103-8.646,23.307-18.58,33.227-29.667c10.125-11.316,18.152-23.467,25.072-36.934
		c8.055-15.676,14.122-32.928,12.843-50.771c-0.039-0.536-0.839-0.549-0.844,0c-0.073,7.9-1.104,17.122-3.793,24.605
		c-2.702,7.521-6.441,14.898-10.353,21.86c-3.651,6.501-8.379,12.365-12.739,18.395c-4.432,6.128-9.255,11.95-14.358,17.528
		c-9.822,10.737-20.737,20.457-32.677,28.785c-12.017,8.382-25.202,14.673-38.539,20.629c-1.902,0.85-3.803,1.714-5.696,2.598
		c19.031-19.248,35.815-40.622,46.88-65.365c6.079-3.758,10.663-11.386,14.884-16.953c5.297-6.987,10.213-14.267,14.648-21.831
		c8.313-14.174,15.742-29.724,16.047-46.465c0.294-16.099-3.897-33.245-9.266-48.337c-5.198-14.615-12.664-28.095-24.768-37.981
		c-0.374-0.306-0.84,0.156-0.53,0.53c9.775,11.82,17.37,25.46,22.272,39.973c4.862,14.395,8.754,30.561,8.419,45.815
		c-0.365,16.601-8.15,32.009-16.521,45.957c-3.91,6.517-8.156,12.841-12.775,18.877c-2.6,3.398-5.304,6.724-8.16,9.911
		c7.769-21.436,9.83-44.395,8.112-67.057c-1.721-22.682-5.874-46.887-15.825-67.512c-18.903-39.173-63.848-54.649-103.506-63.186
		c-26.594-5.724-53.836-9.175-80.982-10.776c-13.817-0.815-27.648-1.125-41.488-0.975c-7.351,0.08-14.77,0.086-22.128,0.602
		c2.55-1.139,4.998-2.528,7.262-3.965c8.682-5.509,15.465-13.633,22.475-21.017c6.682-7.038,13.711-14.62,22.901-18.259
		c8.623-3.415,17.666-4.246,26.646-6.176c9.4-2.021,19.402-1.625,28.988-2.258c8.727-0.577,17.522-1.546,25.968-3.905
		c8.89-2.483,16.275-6.889,24.021-11.758c4.593-2.888,9.293-5.789,14.705-6.802c6.212-1.163,12.996-0.352,19.133,0.808
		c12.42,2.348,24.354,6.424,36.933,8.069c12.31,1.61,24.6,2.004,36.795-0.479c1.608-0.327,1.242-2.906-0.386-2.854
		c-11.638,0.37-23.353,0.915-34.953-0.371c-11.554-1.28-22.584-4.573-33.909-6.997c-9.839-2.106-19.822-3.29-29.739-0.904
		c-9.34,2.248-16.296,9.079-24.913,12.947c-17.419,7.82-37.278,7.063-55.933,7.917
		C1066.807,361.237,1062.545,360.674,1058.23,360.94z"/>
	<path style="fill:#EE1C4E;" d="M1232.527,380.364c-0.051-0.144-0.113-0.284-0.202-0.416c-2.982-4.427-8.387-7.663-12.765-10.609
		c-4.862-3.273-10.015-6.358-15.469-8.546c-11.139-4.468-24.233-5.452-35.789-2.182c-1.111,0.314-0.643,1.945,0.474,1.717
		c12.735-2.598,24.155,0.893,35.513,6.54c4.569,2.272,8.903,4.984,13.06,7.938c2.151,1.529,4.227,3.325,6.387,4.962
		c-4.945-0.478-9.879-1.205-14.845-2.327c-10.755-2.429-21.76-5.405-32.892-4.587c-9.233,0.679-17.892,3.904-26.321,7.544
		c-8.704,3.759-17.169,8.38-26.368,10.845c-10.333,2.769-20.94,0.796-31.42,2.291c-22.14,3.158-42.416,20.259-65.678,15.143
		c-1.191-0.262-1.622,1.392-0.498,1.808c18.141,6.722,34.961-1.494,52.622-5.587c10.049-2.329,19.503-2.875,29.775-2.469
		c9.891,0.391,18.918-1.643,28.014-5.451c8.725-3.653,16.851-8.684,25.687-12.058c9.91-3.785,19.926-4.258,30.328-2.421
		c10.411,1.838,20.575,4.924,31.125,5.973c11.868,1.18,23.015-1.356,34.764-2.435c11.189-1.027,21.925-1.27,32.935,1.171
		c10.598,2.349,19.317,5.08,25.76,14.521c0.673,0.986,2.232,0.111,1.619-0.946c-3.903-6.741-9.965-11.974-16.608-15.951
		c-7.379-4.417-15.476-5.873-23.987-6.255c-11.167-0.502-22.13,1.864-33.251,1.96
		C1240.463,380.572,1236.483,380.525,1232.527,380.364z"/>
	<path style="fill:#EE1C4E;" d="M1199.662,399.508c2.341-0.664,2.839-3.996,0.684-5.226c-7.711-4.402-16.279-2.677-24.422-0.301
		c-8.154,2.379-15.993,5.841-23.768,9.232c-7.975,3.478-15.861,7.182-23.853,10.612c-9.486,4.072-19.414,4.37-29.588,4.012
		c-0.827-0.029-0.907,1.13-0.188,1.381c8.542,2.969,16.835,5.801,26.011,4.3c8.47-1.385,16.555-5.29,24.472-8.452
		c8.083-3.228,16.074-6.789,24.294-9.653C1181.977,402.392,1190.916,401.987,1199.662,399.508z"/>
	<path style="fill:#EE1C4E;" d="M1162.587,433.726c10.587,0.969,19.755-4.248,28.792-9.097c5.364-2.878,10.867-5.058,16.873-6.165
		c6.197-1.141,13.022,0.251,18.963-1.535c1.922-0.578,2.227-3.141,0.549-4.198c-4.896-3.084-11.437-2.209-16.933-1.469
		c-5.524,0.744-10.844,2.447-15.886,4.807c-10.69,5.003-19.865,15.776-32.358,15.782
		C1161.361,431.851,1161.404,433.617,1162.587,433.726z"/>
	<path style="fill:#EE1C4E;" d="M1235.993,403.606c-1.7-0.37-2.431,2.205-0.723,2.622c16.762,4.085,33.877,6.204,50.767,9.628
		c8.156,1.654,16.548,3.443,24.297,6.542c6.744,2.697,13.041,6.544,19.112,10.496c11.738,7.641,22.338,18.473,26.618,32.088
		c4.274,13.596,5.178,27.777,6.873,41.837c1.728,14.324,5.678,32.6,17.288,42.118c1.262,1.034,3.575,0.112,2.978-1.733
		c-2.172-6.705-4.846-13.534-6.079-20.517c-1.3-7.358-1.626-14.778-2.448-22.189c-1.609-14.5-2.668-29.385-8.844-42.817
		c-6.017-13.084-15.741-23.69-27.815-31.445c-12.255-7.871-26.902-12.155-40.951-15.594
		C1276.94,409.717,1256.22,408.008,1235.993,403.606z"/>
	<path style="fill:#EE1C4E;" d="M1333.636,476.915c-2.204-9.155-3.987-18.409-8.544-26.763
		c-7.926-14.53-20.785-24.762-36.099-30.625c-1.229-0.47-2.121,1.612-0.903,2.142c15.982,6.953,28.773,21.068,34.958,37.287
		c3.438,9.016,4.341,18.737,7.404,27.863c2.341,6.975,6.23,15.772,13.732,18.365c1.441,0.498,2.724-1.304,1.958-2.548
		c-2.287-3.722-5.262-6.87-7.34-10.767C1336.304,487.183,1334.873,482.054,1333.636,476.915z"/>
	<path style="fill:#EE1C4E;" d="M1422.191,620.519c-12.32-6.124-23.167-12.516-32.868-22.459
		c-10.204-10.458-18.152-22.773-25.075-35.576c-7.34-13.575-14.146-27.494-22.874-40.26c-7.553-11.048-16.437-21.191-26.413-30.114
		c-11.43-10.223-24.349-18.474-38.395-24.592c-1.292-0.563-2.433,1.218-1.136,1.942c24.844,13.878,47.106,32.71,62.946,56.502
		c16.272,24.442,26.109,53.054,45.154,75.666c9.142,10.854,22.002,21.898,36.421,24.203
		C1422.933,626.307,1425.395,622.11,1422.191,620.519z"/>
	<path style="fill:#EE1C4E;" d="M1288.324,731.44c-35.82,31.56-81.331,47.069-124.946,64.43
		c-44.572,17.74-86.854,40.859-126.019,68.57c-19.038,13.471-38.108,27.669-53.854,44.985
		c-14.922,16.41-26.386,35.537-34.686,56.063c-9.599,23.733-14.673,49.057-16.157,74.574c-0.825,14.175-0.51,28.377,0.812,42.511
		c1.341,14.346,2.621,29.466,7.946,42.929c1.1,2.779,5.554,2.653,5.525-0.747c-0.11-12.847-2.795-25.521-3.889-38.321
		c-0.214-2.504-0.396-5.013-0.558-7.523c0.188-0.119,0.344-0.305,0.416-0.573c4.186-15.509,8.896-30.34,17.364-44.126
		c8.238-13.413,18.515-25.628,30.005-36.363c24.396-22.793,54.005-39.028,84.781-51.486c34.646-14.025,70.587-24.649,105.006-39.247
		c32.329-13.712,63.091-31.877,88.057-56.83c13.182-13.174,25.049-28.897,35.092-44.568c10.053-15.685,19.321-32.926,23.711-51.129
		c0.25-1.039-1.295-1.803-1.8-0.759c-7.452,15.411-14.224,31.009-23.348,45.558c-9.308,14.842-19.949,28.635-32.765,40.61
		c-12.737,11.903-25.813,23.152-40.521,32.588c-15.884,10.189-32.878,18.457-50.267,25.728
		c-64.823,27.104-136.176,41.98-189.718,90.388c-21.583,19.513-41.969,46.723-46.631,76.462c-0.142-5.796-0.138-11.593,0.047-17.379
		c0.763-23.918,4.722-47.729,12.756-70.31c7.335-20.613,18.202-40.258,32.549-56.829c15.905-18.372,35.608-33.285,55.337-47.288
		c39.14-27.781,81.325-50.149,125.317-69.19c42.791-18.521,87.863-35.126,123.558-66.118c17.623-15.302,32.914-34.433,40.805-56.593
		c7.916-22.228,10.008-46.648,2.881-69.373c-0.701-2.236-4.211-1.292-3.525,0.972
		C1345.025,657.366,1321.196,702.479,1288.324,731.44z"/>
	<path style="fill:#EE1C4E;" d="M937.021,1165.551c-1.132,3.019,3.245,5.346,5.327,3.102c7.551-8.137,13.518-17.438,20.562-26.009
		c7.039-8.564,14.644-16.663,22.667-24.309c15.935-15.184,33.48-28.544,51.862-40.616c38.086-25.014,79.418-44.264,120.433-63.872
		c80.88-38.668,167.029-83.711,206.972-168.771c6.703-14.273,11.712-29.025,14.896-44.27c0.799,0.576,1.848,0.721,2.811-0.011
		c10.827-8.224,17.182-22.668,21.247-35.274c4.459-13.824,6.221-28.541,5.924-43.036c-0.654-31.931-13.191-63.24-28.12-91.005
		c-4.568-8.496-9.475-16.806-14.544-25.011c-2.695-4.361-5.341-8.779-8.344-12.936c-1.418-1.964-2.836-3.915-4.326-5.826
		c-0.559-0.716-1.116-1.432-1.671-2.15c0.028,0.037-1.201-1.59-2.091-3.111c-0.243-0.271-0.452-0.576-0.609-0.921
		c-0.192-0.438-0.49-0.913-0.667-1.374l-0.27,0.005c-0.175,0.107-0.376,0.185-0.572,0.268c-0.086,0.18-0.192,0.351-0.296,0.522
		c-0.034,0.104-0.074,0.204-0.114,0.305c0.074,0.444,0.18,0.871,0.286,1.21c1.33,4.216,4.361,8.521,6.509,12.375
		c9.254,16.615,19.725,32.39,28.011,49.567c15.43,31.984,24.166,67.69,17.587,103.171c-1.681,9.063-4.368,17.934-8.2,26.324
		c-3.069,6.723-7.294,12.673-11.063,18.938c0.785-4.749,1.403-9.542,1.832-14.385c2.098-23.749-1.683-45.854-10.87-67.778
		c-0.361-0.861-1.766-0.539-1.446,0.399c13.604,39.988,7.499,84.333-9.107,122.359c-17.634,40.377-46.67,73.961-81.58,100.438
		c-73.331,55.618-163.146,82.592-240.551,131.404c-20.641,13.017-40.457,27.527-58.352,44.153
		c-8.701,8.085-16.935,16.682-24.531,25.815C948.831,1144.607,941.328,1154.067,937.021,1165.551z"/>
	<path style="fill:#EE1C4E;" d="M1225.992,819.377c-65.285,30.752-137.186,46.927-198.056,86.898
		c-15.021,9.864-29.486,21.021-42.055,33.905c-6.162,6.317-11.843,13.13-17.09,20.223c-5.452,7.369-9.403,15.061-12.895,23.521
		c-0.886,2.147,2.347,3.119,3.513,1.481c19.343-27.162,41.769-50.958,69.479-69.721c28.401-19.229,59.684-33.168,91.433-45.84
		c65.836-26.276,136.13-48.178,187.565-99.447c24.73-24.65,44.071-54.792,50.367-89.533c0.286-1.582-2.089-2.28-2.44-0.673
		C1341.319,746.498,1284.584,791.777,1225.992,819.377z"/>
	<path style="fill:#EE1C4E;" d="M976.42,1092.607c19.383-55.046,69.557-88.154,121.145-109.458
		c29.569-12.211,60.084-22.073,89.209-35.367c27.259-12.442,52.503-28.522,73.952-49.556c11.294-11.076,21.699-23.022,30.712-36.037
		c8.846-12.775,17.348-27.595,21.481-42.671c0.282-1.027-1.167-1.637-1.714-0.722c-3.785,6.328-6.777,13.09-10.587,19.414
		c-3.666,6.088-7.625,12.091-11.57,18.004c-8.229,12.333-17.56,23.954-27.983,34.507c-21.46,21.727-47.446,37.881-75.143,50.421
		c-55.188,24.988-116.134,37.615-164.374,76.173c-23.899,19.103-43.399,43.6-48.744,74.295
		C972.393,1093.976,975.609,1094.908,976.42,1092.607z"/>
	<path style="fill:#EE1C4E;" d="M726.798,662.594c2.089-9.917,4.555-19.747,7.311-29.499c2.771-9.802,5.84-19.91,4.416-30.205
		c-1.221-8.822-6.309-16.289-10.442-24.01c-0.158-2.021-0.452-4.02-0.34-6.07c0.189-3.46,1.09-6.842,1.842-10.208
		c1.092-4.886,2.211-9.534,0.932-14.449c-0.109-0.418-0.836-0.475-0.904,0c-0.915,6.353-2.466,12.358-4.033,18.572
		c-0.384,1.524-0.784,3.114-1.087,4.724c-3.194-7.242-5.742-14.752-8.281-22.248c-2.923-8.629-5.93-17.26-9.553-25.626
		c-3.602-8.315-7.271-16.51-13.907-22.853c-0.6-0.573-1.317-0.444-1.769-0.018c0.082-7.332-2.334-16.121-9.584-18.885
		c-0.431-0.165-0.669,0.359-0.529,0.688c3.33,7.835,6.567,14.595,4.471,23.384c-2.127,8.92-8.417,15.567-16.383,19.804
		c-18.334,9.75-40.269,5.799-60.121,5.857c-18.605,0.055-36.126,3.932-49.623,17.451c-5.984,5.994-11.314,12.47-18.796,16.677
		c-6.495,3.652-14.002,5.623-21.418,6.084c-8.491,0.528-16.612-0.716-24.685-3.275c-4.342-1.377-7.954-2.438-11.777-5.063
		c-3.818-2.622-7.657-5.187-11.08-8.324c-0.232-0.212-0.604,0.056-0.442,0.341c8.055,14.081,23.677,22.317,39.508,24.09
		c16.928,1.895,34.468-3.832,46.953-15.384c8.344-7.72,14.987-15.852,26.11-19.701c10.59-3.665,21.798-4.043,32.896-3.95
		c21.004,0.178,44.172,1.072,61.384-13.177c7.505-6.214,12.345-14.956,13.044-24.723c5.259,5.955,10.615,12.184,14.064,19.399
		c3.575,7.479,5.907,15.343,8.121,23.307c3.365,12.105,6.618,23.945,11.539,35.339c0.116,0.361,0.244,0.719,0.396,1.072
		c0.064,0.148,0.147,0.268,0.238,0.375c1.095,2.454,2.265,4.887,3.541,7.296c5.333,10.07,6.342,19.376,3.842,30.488
		c-2.114,9.397-5.179,18.579-7.5,27.931c-4.492,18.105-8.432,36.566-10.449,55.121c-4.042,37.167-2.383,74.837,8.149,110.853
		c2.644,9.042,6.338,18.103,7.031,27.578c0.722,9.877-3.371,17.362-7.961,25.72c-3.809,6.936-6.108,14.265-8.531,21.758
		c-2.444,7.559-5.45,15.494-12.276,20.17c-7.818,5.355-17.843,6.213-27.043,6.456c-9.977,0.263-21.311-0.277-28.791-7.805
		c-7.372-7.419-3.962-17.643-5.184-26.937c-1.246-9.473-5.33-18.537-12.304-25.128c-2.394-2.263-6.632,0.68-4.711,3.635
		c5.451,8.391,9.325,17.401,9.325,27.561c0,7.958-0.771,15.171,3.368,21.906c-0.159-0.056-0.314-0.112-0.484-0.163
		c-2.12-0.641-4.092-1.335-5.979-2.512c-4.295-2.678-7.528-6.775-9.959-11.156c-5.534-9.975-5.887-21.184-5.994-32.326
		c-0.116-12.104-0.227-24.244-4.761-35.659c-4.196-10.563-11.143-19.254-18.06-28.123c-16.051-20.581-32.825-40.525-49.708-60.438
		c-8.642-10.193-17.15-20.502-25.377-31.034c-7.258-9.291-14.914-18.775-19.872-29.551c-6.608-14.365-5.146-29.548-2.01-44.593
		c1.558-7.474,3.403-14.899,5.519-22.234c2.118-7.34,5.009-14.448,6.134-22.021c0.229-1.541-1.633-2.476-2.57-1.083
		c-7.491,11.137-10.681,26.191-13.731,39.112c-3.056,12.947-5.83,26.68-3.998,40.01c0.568,4.137,1.626,8.153,3.033,12.051
		c-1.358,1.313-2.411,3.091-3.393,4.677c-2.594,4.192-4.901,8.585-6.969,13.06c-4.056,8.775-7.005,18.076-8.98,27.533
		c-3.979,19.054-3.489,38.509,2.835,56.924c0.37,1.078,2.233,0.996,2.118-0.286c-1.639-18.118-1.202-36.717,2.576-54.562
		c1.825-8.618,4.558-16.965,7.9-25.107c1.855-4.519,3.992-8.923,6.36-13.194c0.249-0.449,0.524-0.915,0.806-1.393
		c2.463,5.038,5.418,9.855,8.566,14.441c7.645,11.139,15.977,21.845,24.313,32.47c17.271,22.014,35.288,43.717,54.224,64.327
		c8.557,9.313,17.431,18.747,22.736,30.412c5.803,12.76,4.453,27.104,4.879,40.729c0.381,12.163,2.469,24.188,9.797,34.234
		c5.024,6.888,15.753,16.542,24.503,10.855l0.035-0.028c11.59,10.704,30.272,10.083,44.983,7.95
		c7.928-1.148,15.743-3.595,21.977-8.8c6.086-5.082,9.54-12.261,12.149-19.592c3.07-8.625,5.619-16.946,10.191-24.95
		c4.469-7.822,8.106-15.498,8.116-24.706c0.011-9.596-3.028-18.9-5.843-27.964c-3.075-9.898-5.591-19.943-7.457-30.141
		c-3.655-19.978-5.141-40.619-4.567-60.915C720.401,704.175,722.513,682.932,726.798,662.594z"/>
	<path style="fill:#EE1C4E;" d="M691.046,852.189c2.564-0.549,5.135-0.511,7.721-0.148c1.81,0.253,2.517,0.649,4.103-0.05
		c0.137-0.061,0.228-0.283,0.173-0.424c-1.725-4.36-9.975-3.568-13.615-2.794c-5.849,1.244-11.715,5.063-15.499,9.685
		c-4.002,4.89-4.366,11.927-2.953,17.883c1.205,5.079,5.232,14.019,11.514,13.616c1.99-0.127,3.261-1.777,2.848-3.737
		c-0.855-4.052-5.134-6.618-6.559-10.673c-1.636-4.656-0.986-9.372,0.509-13.97C681.019,856.261,685.742,853.324,691.046,852.189z"
		/>
	<path style="fill:#EE1C4E;" d="M432.269,533.003c-4.076-1.648-7.67-3.651-10.906-6.625c-5.229-4.806-10.042-10.169-16.146-13.928
		c-8.108-4.993-23.764-10.309-30.644-0.677c-1.194,1.672,0.809,4.324,2.752,3.581c5.948-2.275,10.253-4.07,16.724-2.018
		c6.536,2.073,11.346,7.537,16.567,11.717c4.708,3.769,9.992,6.66,15.434,9.221c2.757,1.298,5.636,2.469,8.622,3.102
		c2.981,0.631,5.963,0.223,8.968,0.535c0.468,0.048,0.583-0.76,0.112-0.829C440.06,536.545,435.787,534.426,432.269,533.003z"/>
	<path style="fill:#EE1C4E;" d="M590.824,520.031c-15.995,0.535-29.151,5.783-41.471,15.863
		c-12.794,10.467-26.066,23.167-43.969,18.418c-1.882-0.499-3.069,2.184-1.336,3.17c10.724,6.106,24.588,1.412,33.961-5.251
		c11.559-8.217,20.761-19.699,34.616-24.279c27.465-9.078,59.816,4.569,85.503-11.289c10.786-6.659,18.517-17.635,17.231-30.594
		c-0.035-0.353-0.573-0.369-0.563,0c0.507,17.611-15.511,29.955-31.247,33.405C626.181,523.284,608.365,519.445,590.824,520.031z"/>
	<path style="fill:#EE1C4E;" d="M539.599,529.235c0.702-0.077,0.741-1.142,0-1.125c-7.858,0.179-12.805,4.91-18.46,9.821
		c-4.009,3.481-8.155,6.429-13.377,7.772c-5.528,1.422-10.598,0.439-16.142,0.059c-1.054-0.072-1.358,1.423-0.521,1.922
		c7.476,4.447,18.179,2.149,25.155-2.332C523.943,540.413,529.896,530.301,539.599,529.235z"/>
	<path style="fill:#EE1C4E;" d="M649.739,500.815c4.842-3.572,8.815-8.376,12.714-12.915c3.341-3.889,7.42-8.327,8.489-13.467
		c0.108-0.518-0.535-0.985-0.94-0.547c-3.274,3.538-5.737,7.811-8.977,11.428c-3.7,4.13-7.508,8.452-11.911,11.843
		c-9.512,7.327-20.287,4.164-30.918,7.327c-1.344,0.4-1.329,2.305,0,2.712C628.238,510.275,641.404,506.966,649.739,500.815z"/>
	<path style="fill:#EE1C4E;" d="M574.577,510.239c-5.635-1.893-11.771-2.753-17.696-3.146c-11.264-0.746-22.161,2.087-31.801,7.896
		c-9.354,5.635-17.25,13.338-26.493,19.13c-5.18,3.246-10.835,5.976-16.857,7.203c-5.922,1.207-11.421-0.067-17.304,0.119
		c-0.652,0.021-0.987,0.804-0.53,1.28c6.852,7.149,19.847,3.735,27.719,0.477c10.201-4.223,18.484-11.434,27.283-17.902
		c10.181-7.485,20.628-12.65,33.493-13.011c6.542-0.183,12.798,0.778,19.249,1.676c6.2,0.863,12.146,2.859,18.372,3.034
		c0.431,0.012,0.558-0.572,0.213-0.786C585.357,513.187,580.006,512.063,574.577,510.239z"/>
	<path style="fill:#EE1C4E;" d="M454.177,533.293c-11.191-2.112-20.147-8.927-27.679-17.151
		c-5.321-5.811-13.004-14.636-21.875-12.998c-1.507,0.278-1.633,2.466-0.414,3.17c4.625,2.672,8.987,4.445,12.942,8.231
		c3.904,3.737,7.501,7.812,11.754,11.17c7.186,5.674,16.224,7.88,25.134,8.59C454.614,534.352,454.749,533.401,454.177,533.293z"/>
	<path style="fill:#EE1C4E;" d="M558.814,490.788c-20.25-11.151-52.724-8.084-62.787,15.428c-2.996,6.999-5.541,13.08-13.21,15.824
		c-5.889,2.107-12.392,2.092-18.546,1.502c-6.423-0.616-12.918-2.151-18.72-5.027c-5.73-2.841-9.869-7.173-13.999-11.919
		c-0.684-0.786-1.846,0.064-1.645,0.958c2.46,10.948,14.665,16.677,24.549,19.193c10.913,2.777,24.538,3.713,34.472-2.56
		c4.864-3.072,7.632-7.571,9.603-12.876c2.834-7.63,5.865-13.519,13.028-17.938c13.979-8.626,31.928-8.219,46.451-1.208
		C558.923,492.604,559.723,491.288,558.814,490.788z"/>
	<path style="fill:#EE1C4E;" d="M712.272,535.913c2.785-12.891,3.277-25.548-2.012-37.918c-4.072-9.523-12.566-20.676-23.118-23.288
		c-2.507-0.621-3.5,3.416-1.047,3.797c11.372,1.77,19.083,12.395,22.84,22.573c3.994,10.82,4.292,23.458,2.785,34.762
		C711.678,536.152,712.206,536.221,712.272,535.913z"/>
	<path style="fill:#EE1C4E;" d="M663.881,452.225c2.648-3.793,4.144-8.338,6.177-12.479c2.186-4.449,4.599-8.785,7.193-13.008
		c5.296-8.623,11.178-16.964,17.395-24.945c0.467-0.6-0.313-1.452-0.862-0.862c-7.063,7.599-13.543,15.534-19.095,24.309
		c-4.922,7.779-11.349,17.202-12.554,26.511C662.003,452.767,663.415,452.893,663.881,452.225z"/>
	<path style="fill:#EE1C4E;" d="M757.368,433.502c0.316-0.622-0.545-1.414-1.03-0.795c-4.804,6.124-10.126,12.375-15.893,17.717
		c-5.881,5.449-12.811,9.267-18.956,14.316c-0.664,0.545,0.052,1.644,0.821,1.41c7.502-2.276,14.063-7.713,19.799-12.935
		C748.474,447.421,753.507,441.107,757.368,433.502z"/>
	<path style="fill:#EE1C4E;" d="M572.026,319.567c14.619,6.184,30.248,8.962,44.514,16.18c14.285,7.228,27.294,17.156,36.594,30.313
		c8.471,11.983,16.298,29.976,11.63,44.863c-8.382,7.553-17.398,14.234-27.107,20.439c-9.545,6.101-29.153,14.921-26.517,28.951
		c0.271,1.442,2.417,1.617,3.084,0.403c3.691-6.715,7.592-12.059,13.772-16.725c6.175-4.662,12.576-9.029,18.793-13.636
		c4.155-3.079,8.351-6.282,12.372-9.698c-4.216,6.892-7.8,14.16-10.722,21.704c-2.045,5.28-3.605,10.724-5.53,16.046
		c-2.102,5.81-5.325,10.645-8.206,16.037c-1.164,2.18,1.34,5.3,3.656,3.656c8.382-5.952,10.997-17.817,14.053-27.07
		c3.794-11.485,9.023-22.35,15.808-32.374c11.226-16.587,26.856-28.158,41.643-40.97c-5.813,15.188-9.479,31.216-14.317,46.721
		c-2.995,9.6-6.994,18.5-14.562,25.364c-6.974,6.325-16.173,10.226-25.074,12.973c-2.313,0.714-2.035,4.65,0.598,4.42
		c0.441-0.039,0.879-0.088,1.317-0.137c-8.911,13.066-21.567,22.683-37.396,25.624c-17.869,3.32-34.959-2.442-49.447-12.75
		c-6-4.269-12.026-9.036-19.247-11.041c-7.902-2.194-15.784,0.024-23.388,2.357c-8.757,2.687-17.68,6.393-26.898,7.056
		c-9.15,0.659-17.464-3.783-26.418-3.5c-2.057,0.064-2.54,2.554-0.994,3.668c11.5,8.29,28.304,5.768,41.048,2.037
		c7.176-2.101,14.151-4.901,21.406-6.731c8.263-2.084,15.231-1.002,22.504,3.348c5.662,3.386,10.729,7.661,16.49,10.895
		c5.898,3.311,12.283,5.734,18.868,7.258c12.294,2.845,25.235,2.51,37.073-2.082c12.383-4.803,23.721-13.786,29.202-26.094
		c0.068-0.154,0.098-0.303,0.11-0.448c9.552-1.584,18.069-5.623,24.97-11.667c2.915,1.839,6.036,3.343,8.855,5.362
		c3.38,2.421,6.423,5.299,9.413,8.177c5.48,5.276,10.254,11.178,14.185,17.699c8.047,13.353,12.661,29.507,12.365,45.129
		c-0.003,0.185,0.261,0.175,0.281,0c1.936-16.807-1.337-32.952-9.478-47.827c-3.9-7.126-8.886-14.012-14.784-19.63
		c-3.325-3.167-7.273-6.492-11.461-9.225c5.65-0.124,11.356-1.409,16.721-2.75c9.177-2.294,17.493-5.977,25.276-11.378
		c12.708-8.818,22.314-20.133,30.525-32.808c-1.111,6.167-2.903,12.28-4.466,18.266c-2.029,7.774-4.287,15.558-7.594,22.899
		c-6.136,13.624-15.428,23.798-28.752,30.584c-2.045,1.042-0.624,4.323,1.553,3.684c14.508-4.255,24.888-17.835,30.958-31.054
		c3.662-7.974,6.194-16.378,8.387-24.858c2.37-9.171,4.91-18.397,4.776-27.942c-0.027-1.951-2.568-2.566-3.589-0.972
		c-8.89,13.885-20.232,27.622-33.798,37.158c-6.878,4.835-14.815,9.062-22.82,11.691c-7.06,2.319-14.098,2.292-21.305,2.438
		c3.488-4.14,6.376-8.917,8.54-14.249c9.007-22.198,12.342-46.411,21.921-68.446c1.29-2.968-2.337-6.678-4.904-3.784
		c-8.184,9.227-18.656,16.182-28.104,24.01c-7.484,6.201-14.262,13.085-20.271,20.676c-0.478,0.453-0.959,0.899-1.441,1.346
		c3.042-11.49-0.76-24.283-5.89-34.696c-6.729-13.66-17.028-25.089-29.356-33.941c-13.303-9.552-28.323-15.152-43.802-20.066
		c-8.035-2.552-16.179-5.287-23.176-10.117c-7.085-4.892-10.441-11.266-14.824-18.377c-0.803-1.303-2.862-0.77-2.883,0.781
		C546.6,305.678,561.542,315.133,572.026,319.567z"/>
	<path style="fill:#EE1C4E;" d="M617.303,411.467c0.581,6.463,2.036,16.949,9.474,19.011c1.342,0.372,2.621-0.907,2.249-2.249
		c-1.139-4.11-4.13-7.474-5.425-11.61c-1.675-5.35-1.623-10.907-1.741-16.453c-0.209-9.872-1.92-18.767-7.651-27.004
		c-10.892-15.652-31.036-23.368-48.951-27.465c-0.245-0.056-0.436,0.318-0.181,0.429c18.217,7.888,39.184,14.034,48.435,33.542
		C618.197,389.546,616.356,400.916,617.303,411.467z"/>
	<path style="fill:#EE1C4E;" d="M462.563,319.689c18.368,2.216,30.683,16.59,44.2,27.693c11.806,9.697,24.06,14.002,39.199,15.195
		c7.913,0.624,15.94,0.76,23.659,2.799c8.709,2.301,15.305,7.606,21.467,13.99c3.029,3.138,5.986,6.629,7.411,10.824
		c1.228,3.614,0.907,7.37,0.904,11.114c-0.004,5.01-0.139,12.973,5.794,14.699c1.433,0.417,2.491-0.931,2.249-2.249
		c-0.708-3.859-2.37-6.865-2.424-10.982c-0.041-3.193,0.119-6.338-0.404-9.508c-1.224-7.431-6.209-13.208-11.578-18.151
		c-5.711-5.259-11.894-10.119-19.308-12.689c-7.05-2.443-14.633-2.898-22.022-3.34c-8.264-0.495-16.643-0.856-24.473-3.804
		c-8.518-3.206-16.3-8.928-23.309-14.619c-12.15-9.865-25.031-20.938-41.055-23.276
		C461.203,317.144,460.864,319.485,462.563,319.689z"/>
	<path style="fill:#EE1C4E;" d="M457.104,667.624c2.44-15.715,6.316-31.77,12.05-46.617c0.171-0.444-0.559-0.751-0.771-0.325
		c-7.571,15.167-11.821,31.311-14.276,48.084c-1.172,8.007-1.924,16.073-2.218,24.161c-0.297,8.183-0.67,17.025,1.105,25.06
		c0.215,0.975,1.593,0.681,1.657-0.225c0.581-8.211-0.253-16.584,0.05-24.835C455.012,684.456,455.803,676.001,457.104,667.624z"/>
	<path style="fill:#EE1C4E;" d="M319.309,363.765c22.23,4.525,44.161-0.42,65.745-5.787c11.15-2.772,23.991-5.438,34.764,0.023
		c8.512,4.315,15.759,10.417,24.762,13.851c17.051,6.504,35.854,6.054,53.796,7.157c4.78,0.294,9.377,1.526,14.095,2.302
		c4.404,0.725,8.767,1.447,13.075,2.648c10.174,2.837,16.863,8.038,24.442,15.142c8.38,7.854,15.417,16.972,24.549,24.037
		c3.042,2.354,6.624,4.676,10.441,6.388c-6.047-0.405-12.131-0.476-18.195-0.571c-11.956-0.188-23.904-0.072-35.851,0.445
		c-24.437,1.057-48.744,3.769-72.854,7.878c-40.275,6.866-87.637,18.656-113.193,53.433c-13.541,18.426-18.48,41.982-21.761,64.172
		c-3.521,23.821-3.752,48.253,2.448,71.676c0.545,2.061,1.149,4.097,1.783,6.12c-1.256-1.541-2.49-3.101-3.699-4.68
		c-4.62-6.034-8.868-12.36-12.775-18.877c-8.365-13.954-16.154-29.352-16.52-45.957c-0.335-15.25,3.549-31.426,8.419-45.815
		c4.912-14.511,12.494-28.149,22.272-39.973c0.31-0.374-0.156-0.836-0.53-0.53c-12.104,9.887-19.569,23.366-24.768,37.982
		c-5.366,15.088-9.56,32.243-9.266,48.336c0.306,16.741,7.735,32.292,16.047,46.465c4.436,7.564,9.352,14.844,14.648,21.831
		c3.176,4.189,6.562,9.548,10.636,13.548c10.776,26.139,28.55,49.026,48.532,69.24c-13.358-6.402-26.882-12.057-39.431-20.049
		c-24.804-15.797-44.191-37.992-60.799-61.965c-10.608-15.313-17.657-33.63-17.83-52.356c-0.005-0.548-0.805-0.537-0.844,0
		c-1.089,15.192,3.092,30.834,9.647,44.501c6.63,13.824,14.242,26.469,24.042,38.288c19.413,23.412,44.298,41.232,71.361,54.764
		c8.067,4.034,16.313,7.712,24.266,11.972c5.983,3.204,11.651,7.638,17.749,10.779c17.37,14.754,35.561,28.596,52.26,44.09
		c19.246,17.857,28.421,41.139,37.42,65.22c0.668,1.788,3.325,1.113,2.893-0.798c-4.549-20.125-9.825-40.862-22.834-57.376
		c-13.91-17.657-33.407-31.2-50.527-45.548c-33.156-27.787-66.546-57.824-84.296-98.212c-9.282-21.12-12.468-43.857-11.583-66.803
		c0.865-22.418,3.974-46.333,12.196-67.339c16.065-41.042,61.248-55.781,100.386-65.699c25.908-6.564,52.316-10.021,78.97-11.639
		c13.497-0.819,27.031-1.196,40.551-1.29c12.968-0.09,26.006,0.687,38.865-1.177c0.798-0.116,0.721-1.363,0-1.537
		c-0.615-0.148-1.231-0.285-1.849-0.418c0.8-0.208,1.594-0.468,2.377-0.798c1.567-0.662,1.372-3.162,0-3.886
		c-4.086-2.158-8.48-3.558-12.555-5.759c-4.65-2.512-8.776-5.904-12.626-9.504c-7.436-6.953-13.574-15.221-21.324-21.857
		c-12.943-11.083-33.907-17.437-50.839-16.452c-9.091,0.529-18.501-0.16-27.609-0.726c-9.521-0.592-19.076-1.631-28.215-4.487
		c-4.272-1.334-8.394-3.075-12.274-5.313c-4.502-2.597-8.597-5.978-13.356-8.103c-8.693-3.882-18.738-4.129-28.014-2.729
		c-12.097,1.825-23.735,5.831-35.827,7.696c-13.616,2.101-27.297,1.61-41.011,1.174
		C318.083,360.859,317.684,363.434,319.309,363.765z"/>
	<path style="fill:#EE1C4E;" d="M253.536,414.193c5.643-8.27,13.399-12.024,22.978-13.934c9.134-1.822,17.645-2.94,27.008-2.425
		c11.318,0.622,22.542,3.411,33.829,3.504c11.145,0.092,21.796-2.329,32.613-4.715c10.832-2.391,21.68-4.112,32.58-1.149
		c9.021,2.452,17.018,7.302,25.42,11.24c8.034,3.766,16.376,7.099,25.269,8.034c10.564,1.11,20.935-0.797,31.53,1.097
		c19.949,3.564,39.418,14.653,59.784,7.106c1.122-0.416,0.695-2.071-0.499-1.808c-20.345,4.475-39.783-8.25-58.668-13.598
		c-10.194-2.887-20.226-1.426-30.598-2.392c-9.862-0.919-18.806-5.371-27.699-9.391c-8.592-3.884-17.415-8.015-26.765-9.673
		c-10.356-1.836-20.639-0.297-30.799,1.95c-7.8,1.725-15.416,3.491-23.218,4.336c1.998-1.515,3.917-3.171,5.916-4.61
		c4.367-3.146,8.931-6.034,13.754-8.432c11.361-5.649,22.77-9.14,35.513-6.54c1.114,0.227,1.587-1.403,0.474-1.718
		c-11.569-3.274-24.633-2.269-35.788,2.182c-5.455,2.176-10.611,5.276-15.47,8.545c-4.368,2.939-9.789,6.193-12.765,10.61
		c-0.1,0.149-0.167,0.309-0.219,0.473c-0.762,0.005-1.526,0-2.294-0.02c-5.829-0.144-11.559,0.063-17.387-0.405
		c-6.131-0.491-12.231-1.234-18.385-1.433c-9.383-0.303-19.601,0.271-28.094,4.592c-7.841,3.989-15.198,9.963-19.637,17.627
		C251.305,414.303,252.863,415.18,253.536,414.193z"/>
	<path style="fill:#EE1C4E;" d="M396.954,417.877c8.217,2.872,16.211,6.425,24.294,9.653c7.917,3.161,15.996,7.089,24.473,8.452
		c9.175,1.475,17.459-1.328,26.01-4.3c0.714-0.248,0.647-1.41-0.187-1.381c-10.147,0.356-20.128,0.066-29.588-4.013
		c-7.986-3.442-15.877-7.134-23.852-10.612c-7.774-3.39-15.61-6.863-23.768-9.231c-8.128-2.36-16.718-4.097-24.421,0.301
		c-2.155,1.23-1.661,4.562,0.683,5.226C379.34,414.45,388.286,414.847,396.954,417.877z"/>
	<path style="fill:#EE1C4E;" d="M342.496,425.194c-1.68,1.058-1.372,3.621,0.548,4.198c5.698,1.714,12.163,0.374,18.094,1.39
		c6.326,1.083,12.098,3.289,17.742,6.311c9.054,4.846,18.189,10.067,28.792,9.097c1.181-0.108,1.228-1.875,0-1.875
		c-12.491-0.006-21.67-10.779-32.359-15.782c-5.042-2.36-10.361-4.061-15.885-4.807C353.94,422.984,347.384,422.114,342.496,425.194
		z"/>
	<path style="fill:#EE1C4E;" d="M176.033,562.4c10.363-8.495,13.858-23.274,16.315-35.955c2.758-14.237,2.851-28.751,6.443-42.876
		c7.452-29.303,36.378-46.154,64.096-52.653c19.217-4.506,38.912-6.548,58.102-11.225c1.706-0.416,0.981-2.992-0.723-2.622
		c-17.784,3.87-35.938,5.647-53.749,9.382c-14.422,3.025-30.08,6.978-43.068,14.149c-12.534,6.92-23.188,16.633-30.242,29.162
		c-7.312,12.987-9.376,27.379-10.953,41.991c-0.913,8.458-1.361,16.989-2.641,25.4c-1.23,8.083-4.054,15.79-6.556,23.514
		C172.459,562.511,174.771,563.436,176.033,562.4z"/>
	<path style="fill:#EE1C4E;" d="M267.266,432.991c-15.313,5.863-28.173,16.095-36.098,30.625
		c-4.408,8.083-6.235,17.011-8.334,25.882c-1.223,5.167-2.582,10.385-5.008,15.14c-2.132,4.18-5.282,7.512-7.71,11.462
		c-0.762,1.239,0.513,3.047,1.958,2.548c7.259-2.509,11.118-10.877,13.481-17.616c3.276-9.338,4.124-19.35,7.655-28.612
		c6.183-16.218,18.978-30.335,34.958-37.287C269.374,434.608,268.508,432.515,267.266,432.991z"/>
	<path style="fill:#EE1C4E;" d="M136.307,639.294c12.368-1.976,23.756-10.609,32.233-19.508c9.688-10.169,16.771-22.099,23.554-34.3
		c7.518-13.523,14.219-27.525,22.354-40.699c7.551-12.231,16.606-23.428,27.068-33.291c11.816-11.14,25.143-20.656,39.313-28.572
		c1.295-0.724,0.157-2.506-1.136-1.943c-24.705,10.762-45.601,28.449-61.538,50.095c-17.854,24.25-27.341,53.727-47.469,76.416
		c-4.953,5.583-10.449,10.899-16.477,15.314c-6.232,4.566-13.255,7.753-20.142,11.176
		C130.891,635.561,133.298,639.774,136.307,639.294z"/>
	<path style="fill:#EE1C4E;" d="M637.984,1062.178c-0.539-23.439-3.962-46.926-11.14-69.278
		c-6.677-20.79-16.348-40.723-29.517-58.19c-14.113-18.72-31.885-33.693-50.544-47.689c-38.036-28.529-79.641-53.465-123.495-71.973
		c-43.724-18.453-89.968-32.286-128.587-60.825c-39.229-28.988-71.283-78.396-56.046-128.706c0.684-2.259-2.823-3.211-3.526-0.972
		c-13.022,41.522,3.706,85.576,32.944,115.79c31.995,33.063,75.531,51.316,117.133,68.965
		c44.336,18.808,87.438,39.484,127.587,66.267c20.173,13.456,40.157,27.814,57.764,44.547
		c16.655,15.828,29.779,34.566,39.252,55.489c10.66,23.544,16.312,49.276,18.047,74.996c0.61,9.045,0.743,18.123,0.511,27.191
		c-4.086-25.895-20.233-50.233-38.034-68.385c-22.761-23.21-51.002-40.792-80.585-53.936
		c-67.282-29.893-143.222-43.394-199.214-94.42c-14.467-13.185-27.324-26.866-38.202-43.22
		c-10.866-16.335-18.699-33.948-27.205-51.537c-0.5-1.034-2.052-0.291-1.799,0.759c7.774,32.241,28.854,60.715,49.82,85.678
		c22.567,26.869,52.929,46.485,84.471,61.229c64.039,29.932,137.085,41.887,192.803,87.964
		c13.96,11.545,26.322,24.856,36.439,39.903c10.175,15.135,15.77,31.512,20.482,48.976c0.071,0.262,0.223,0.444,0.409,0.564
		c-0.037,0.58-0.067,1.161-0.106,1.74c-1.001,14.738-4.206,29.361-4.332,44.112c-0.029,3.375,4.416,3.55,5.524,0.748
		c4.658-11.776,5.966-24.61,7.355-37.141C637.618,1087.986,638.28,1075.094,637.984,1062.178z"/>
	<path style="fill:#EE1C4E;" d="M212.641,593.635c-0.168-0.056-0.333-0.122-0.503-0.173c-0.103-0.032-0.396-0.093-0.637-0.147
		l-0.193,0.009c-0.22,0.122-0.439,0.263-0.652,0.434c-0.374,0.909-0.748,1.693-0.714,1.635c-0.441,0.766-1.084,1.483-1.607,2.196
		c-1.255,1.709-2.512,3.408-3.719,5.151c-2.59,3.737-4.936,7.574-7.249,11.487c-4.451,7.531-8.782,15.134-12.873,22.866
		c-7.949,15.028-14.919,30.569-20.112,46.772c-9.218,28.762-12.352,59.112-3.799,88.469c4.19,14.382,11.445,31.43,23.985,40.458
		c2.305,1.659,4.981-1.508,3.72-3.72c-3.96-6.943-9.058-13.138-12.792-20.246c-3.813-7.258-6.724-14.956-8.822-22.877
		c-4.175-15.759-4.885-32.214-3.623-48.417c2.954-37.915,21.491-72.773,40.38-105.006c2.751-4.695,5.164-9.547,7.569-14.426
		c0.441-0.894,1.379-2.336,1.986-3.813c-0.045-0.178-0.111-0.351-0.164-0.528L212.641,593.635z"/>
	<path style="fill:#EE1C4E;" d="M275.739,945.749c72.161,59.724,163.612,87.034,242.748,135.361
		c21.328,13.024,41.834,27.496,60.38,44.286c9.005,8.152,17.542,16.83,25.432,26.069c8.226,9.634,15.001,20.37,23.612,29.649
		c2.082,2.244,6.46-0.08,5.327-3.101c-3.862-10.298-10.229-18.733-17.091-27.248c-6.625-8.219-13.763-16.018-21.302-23.404
		c-15.495-15.182-32.653-28.634-50.589-40.804c-37.097-25.172-77.591-44.565-117.975-63.775
		c-80.737-38.407-167.687-80.084-210.979-162.982c-21.536-41.238-31.11-91.222-15.784-136.267c0.318-0.936-1.084-1.262-1.446-0.399
		c-8.175,19.508-12.275,39.132-11.358,60.341c0.883,20.42,5.103,40.675,12.536,59.703
		C215.088,883.729,242.373,918.135,275.739,945.749z"/>
	<path style="fill:#EE1C4E;" d="M212.004,693.328c11.513,63.533,64.612,110.406,119.292,139.083
		c64.814,33.993,137.808,50.4,200.172,89.305c15.615,9.741,30.417,20.804,43.648,33.623c13.319,12.905,24.987,27.439,35.733,42.529
		c1.154,1.621,4.407,0.688,3.513-1.48c-3.068-7.437-6.397-14.466-11.08-21.025c-4.53-6.345-9.441-12.426-14.678-18.201
		c-10.68-11.778-23.036-22.039-35.924-31.308c-27.257-19.603-57.664-34.124-88.672-46.722
		c-66.92-27.186-138.824-46.085-193.935-95.29c-26.971-24.08-47.848-55.601-55.627-91.187
		C214.094,691.05,211.717,691.744,212.004,693.328z"/>
	<path style="fill:#EE1C4E;" d="M301.743,902.794c20.415,21.497,44.135,38.974,70.678,52.184
		c54.657,27.201,116.711,39.411,166.084,76.828c24.63,18.666,44.99,43.892,55.333,73.265c0.809,2.297,4.029,1.373,3.616-0.996
		c-9.615-55.225-63.431-90.334-111.345-110.813c-57.918-24.755-120.984-39.051-168.883-82.426
		c-12.367-11.198-23.327-23.915-32.885-37.58c-4.543-6.495-8.695-13.256-13.007-19.902c-4.599-7.09-7.954-14.858-12.282-22.094
		c-0.542-0.906-1.998-0.315-1.713,0.723c3.64,13.273,10.853,26.621,18.381,38.071C283.387,881.711,292.137,892.679,301.743,902.794z
		"/>
	<path style="fill:#EE1C4E;" d="M742.869,1294.763c-15.488-15.466-32.373-29.485-50.047-42.378
		c-36.244-26.436-75.941-47.702-116.503-66.677c-45.665-21.36-92.675-39.632-138.533-60.557
		c-43.983-20.069-86.488-42.479-126.285-70.02c-43.481-30.091-84.316-64.837-121.4-102.532c-0.511-0.52-1.281,0.262-0.795,0.796
		c31.163,34.263,65.144,65.083,102.254,92.834c37.742,28.223,78.142,53.708,120.134,75.12
		c85.534,43.616,177.916,74.937,257.635,129.37c20.141,13.753,39.316,28.915,56.89,45.845c17.24,16.607,34.088,35.021,46.183,55.787
		c4.773,8.197,17.946,0.003,12.466-7.286C771.665,1327.507,758.452,1310.323,742.869,1294.763z"/>
	<path style="fill:#EE1C4E;" d="M1366.159,910.961c-30.396,35.75-64.009,69.428-99.86,99.698
		c-36.645,30.939-76.049,57.238-117.712,80.899c-83.527,47.436-173.122,84.388-249.1,144.236
		c-19.35,15.242-37.666,31.854-54.202,50.127c-16.607,18.351-30.296,38.396-43.667,59.144c-5.079,7.882,8.398,15.603,12.467,7.286
		c9.403-19.219,22.711-36.854,36.613-53.035c14.272-16.611,30.022-31.919,46.698-46.102c34.367-29.229,72.646-53.376,111.857-75.511
		c43.75-24.696,88.563-47.478,131.977-72.773c40.813-23.781,79.727-50.99,116.158-81.065
		c40.558-33.482,77.104-70.764,109.565-112.108C1367.392,911.2,1366.635,910.401,1366.159,910.961z"/>
	<path style="fill:#EE1C4E;" d="M894.809,1206.529c2.137-2.305-0.536-5.653-3.295-4.271c-22.112,11.09-40.538,28.536-57.51,46.302
		c-15.312,16.027-29.087,33.578-41.513,51.946c-17.556-19.805-35.285-39.496-54.502-57.714
		c-10.182-9.652-20.855-18.739-32.044-27.204c-10.707-8.101-22.914-18.121-36.046-21.747c-1.89-0.521-3.315,1.904-1.916,3.291
		c4.803,4.758,10.687,8.257,16.139,12.216c5.922,4.3,11.757,8.696,17.405,13.354c10.733,8.853,20.924,18.378,30.769,28.203
		c20.064,20.024,38.419,41.659,56.715,63.284c2.6,3.071,7.238,1.674,9.188-1.185c13.589-19.924,28.875-38.507,45.388-56.074
		C860.019,1239.449,878.515,1224.105,894.809,1206.529z"/>
	<path style="fill:#EE1C4E;" d="M283.026,990.473c11.828,9.749,24.468,20.418,38.963,25.819c4.394,1.637,7.632-4.645,4.469-7.679
		c-9.646-9.255-21.355-16.446-31.749-24.856c-10.535-8.525-20.642-17.593-30.435-26.957c-19.232-18.389-37.465-37.902-54.804-58.081
		c-34.559-40.217-64.239-86.015-73.354-139.092c-2.531-14.737-3.359-29.807-2.404-44.732c0.977-15.264,4.651-29.961,8.086-44.8
		c0.522-2.257-2.67-3.8-3.855-1.625c-12.794,23.482-14.396,53.215-11.81,79.318c2.735,27.61,11.079,53.848,22.699,78.94
		c23.148,49.989,60.572,92.632,99.068,131.419C259.119,969.447,270.736,980.343,283.026,990.473z"/>
	<path style="fill:#EE1C4E;" d="M1411.518,770.432c-14.934,68.227-53.78,128.877-106.888,173.791
		c-7.445,6.297-15.146,12.328-22.917,18.217c-7.645,5.793-15.723,11.172-23.221,17.139c-1.668,1.328,0.135,4.338,2.098,3.604
		c8.115-3.033,16.07-7.751,23.53-12.113c7.335-4.29,14.183-9.46,20.805-14.765c13.888-11.126,26.567-23.62,38.068-37.188
		c22.788-26.884,41.082-56.915,54.551-89.504c7.729-18.702,13.226-38.476,17.047-58.333
		C1414.975,769.284,1411.959,768.414,1411.518,770.432z"/>
	<path style="fill:#EE1C4E;" d="M641.296,637.033c8.528,3.587,23.218,5.542,28.304-4.443c0.95-1.866,0.21-4.427-2.017-4.958
		c-6.354-1.516-12.723,0.689-19.107-0.642c-6.219-1.296-16.327-6.293-16.488-13.629c-0.084-3.828-6.064-4.944-6.906-0.935
		C622.744,623.573,631.662,632.98,641.296,637.033z"/>
	<path style="fill:#EE1C4E;" d="M921.713,637.033c9.635-4.053,18.554-13.456,16.214-24.606c-0.833-3.973-6.82-2.932-6.905,0.935
		c-0.162,7.333-10.298,12.339-16.488,13.629c-6.386,1.331-12.757-0.874-19.107,0.642c-2.227,0.531-2.967,3.092-2.017,4.958
		C898.497,642.58,913.177,640.623,921.713,637.033z"/>
</g>
<g>
</g>
<g>
</g>
<g>
</g>
<g>
</g>
<g>
</g>
<g>
</g>
</svg>
